<svg xmlns="http://www.w3.org/2000/svg" width="100" height="100">
	<defs>
		<mask id="shadow">
			<rect x="0" y="0" width="100" height="100" rx="25" fill="#fff" />
			<rect x="0" y="0" width="100" height="95" rx="25" fill="#000" />
		</mask>
		<mask id="eyes">
			<rect x="0" y="0" width="100" height="100" rx="25" fill="#fff" />
			<rect x="0" y="47.5" width="100" height="20" fill="#000" />
		</mask>
	</defs>

	<rect x="0" y="0" width="100" height="100" rx="25" fill="#0c0" opacity="1" />

	<circle cx="40" cy="15" r="2.5" fill="#222" />
	<circle cx="60" cy="15" r="2.5" fill="#222" />

	<g style="fill:none; stroke:#222;">
		<path d="m40,15, 20,0" style="stroke-width:5;" />

		<g stroke-width="2.5" mask="url(#eyes)">
			<circle cx="27.5" cy="47.5" r="7.5" />
			<circle cx="72.5" cy="47.5" r="7.5" />
		</g>

		<g id="snout" style="stroke-width:2.5;">
			<circle cx="50" cy="67.5" r="12.5" fill="#fc0" />
			<path d="m45,63.75, 0,7.5" />
			<path d="m55,63.75, 0,7.5" />
		</g>
	</g>

	<circle cx="45" cy="63.75" r="1.25" fill="#222" />
	<circle cx="45" cy="71.25" r="1.25" fill="#222" />

	<circle cx="55" cy="63.75" r="1.25" fill="#222" />
	<circle cx="55" cy="71.25" r="1.25" fill="#222" />

	<g style="font-size:15px; font-weight:bold; opacity:0.4;">
		<text x="17.5" y="75">$</text>
		<text x="72.5" y="75">$</text>
	</g>

	<g mask="url(#corners)">
		<rect mask="url(#shadow)" x="0" y="75" width="100" height="25" fill="#000" opacity="0.2" />
	</g>
</svg>